HIERARCHY
ROOT Hips
{
	OFFSET 0.000000 8.830580 0.000000
	CHANNELS 6 Xposition Yposition Zposition Zrotation Yrotation Xrotation 
	JOINT Spine
	{
		OFFSET 0.000000 0.010000 0.000000
		CHANNELS 3 Zrotation Yrotation Xrotation
		JOINT Spine1
		{
			OFFSET 0.000000 2.459130 0.000000
			CHANNELS 3 Zrotation Yrotation Xrotation
			JOINT Neck
			{
				OFFSET 0.000000 2.484630 0.000000
				CHANNELS 3 Zrotation Yrotation Xrotation
				JOINT Head_virtual
				{
					OFFSET 0.000000 0.000000 0.000000
					CHANNELS 3 Zrotation Yrotation Xrotation
					JOINT Head
					{
						OFFSET 0.000000 0.927525 0.000000
						CHANNELS 3 Zrotation Yrotation Xrotation
						End Site
						{
							OFFSET 0.000000 0.000000 0.000000
						}
					}
				}
				JOINT LeftUpArm_virtual
				{
					OFFSET 0.000000 0.000000 0.000000
					CHANNELS 3 Zrotation Yrotation Xrotation
					JOINT LeftUpArm
					{
						OFFSET 1.248820 0.000000 0.000000
						CHANNELS 3 Zrotation Yrotation Xrotation
						JOINT LeftForeArm
						{
							OFFSET 2.597580 0.000000 0.000000
							CHANNELS 3 Zrotation Yrotation Xrotation
							JOINT LeftHand
							{
								OFFSET 2.455420 0.000000 0.000000
								CHANNELS 3 Zrotation Yrotation Xrotation
								End Site
								{
									OFFSET 0.000000 0.000000 0.000000
								}
							}
						}
					}
				}
				JOINT RightUpArm_virtual
				{
					OFFSET -0.000000 -0.000000 -0.000000
					CHANNELS 3 Zrotation Yrotation Xrotation
					JOINT RightUpArm
					{
						OFFSET -1.248820 -0.000000 -0.000000
						CHANNELS 3 Zrotation Yrotation Xrotation
						JOINT RightForeArm
						{
							OFFSET -2.597580 -0.000000 -0.000000
							CHANNELS 3 Zrotation Yrotation Xrotation
							JOINT RightHand
							{
								OFFSET -2.455420 -0.000000 -0.000000
								CHANNELS 3 Zrotation Yrotation Xrotation
								End Site
								{
									OFFSET 0.000000 0.000000 0.000000
								}
							}
						}
					}
				}
			}
		}
	}
	JOINT LeftUpLeg
	{
		OFFSET 1.271939 0.000000 0.000000
		CHANNELS 3 Zrotation Yrotation Xrotation
		JOINT LeftLowLeg
		{
			OFFSET 0.000000 -4.342910 0.000000
			CHANNELS 3 Zrotation Yrotation Xrotation
			JOINT LeftFoot
			{
				OFFSET 0.000000 -4.487670 0.000000
				CHANNELS 3 Zrotation Yrotation Xrotation
				JOINT LeftToeBase
				{
					OFFSET 0.000000 0.000000 1.515070
					CHANNELS 3 Zrotation Yrotation Xrotation
					End Site
					{
						OFFSET 0.000000 0.000000 0.000000
					}
				}
			}
		}
	}
	JOINT RightUpLeg
	{
		OFFSET -1.271939 0.000000 0.000000
		CHANNELS 3 Zrotation Yrotation Xrotation
		JOINT RightLowLeg
		{
			OFFSET 0.000000 -4.342910 0.000000
			CHANNELS 3 Zrotation Yrotation Xrotation
			JOINT RightFoot
			{
				OFFSET 0.000000 -4.487670 0.000000
				CHANNELS 3 Zrotation Yrotation Xrotation
				JOINT RightToeBase
				{
					OFFSET 0.000000 0.000000 1.515070
					CHANNELS 3 Zrotation Yrotation Xrotation
					End Site
					{
						OFFSET 0.000000 0.000000 0.000000
					}
				}
			}
		}
	}
}
MOTION
Frames: 17
Frame Time: 0.041667
-20.330048 9.072283 39.775258 -175.544668 10.580155 -143.617840 2.017411 -4.147128 30.500932 -3.576975 5.934513 9.417557 0.000000 0.000000 0.000000 -5.548811 1.354807 -31.372659 9.572940 1.133513 -64.061539 -9.037350 -13.064900 10.121100 -34.070702 -56.366402 -10.523300 0.000000 -48.205799 0.000000 12.535300 19.330799 -52.323200 11.561400 11.077500 6.640800 29.810200 60.130600 -7.186780 0.000000 44.755798 0.000000 -6.843700 -16.184799 -44.553101 -1.442948 2.777119 -55.658065 0.000000 0.000000 26.502501 -6.804318 -0.356566 8.528156 0.000000 0.000000 -39.091700 -6.017532 -2.888286 -47.719784 0.000000 0.000000 23.020100 17.246046 6.972198 9.805468 0.000000 0.000000 -28.217100 
-20.315128 9.078770 39.763781 -175.391416 10.679171 -144.691933 2.027964 -4.142851 29.444075 -3.466219 5.945546 9.573841 0.000000 0.000000 0.000000 -5.673390 1.550600 -31.022546 9.743809 1.132122 -63.434660 -9.507830 -12.706800 10.527600 -34.786800 -55.318199 -8.870040 0.000000 -48.906898 0.000000 12.308300 19.183800 -51.829102 12.080900 10.982600 7.182410 30.091801 59.253101 -5.235560 0.000000 45.185799 0.000000 -6.903600 -16.216999 -45.695499 -1.213905 2.974063 -54.297847 0.000000 0.000000 26.249701 -6.893030 -0.328378 8.338518 0.000000 0.000000 -38.961700 -5.748808 -2.733896 -46.304510 0.000000 0.000000 22.483900 16.903183 6.853990 9.940624 0.000000 0.000000 -28.304100 
-20.299458 9.082652 39.754546 -175.244098 10.866689 -145.411063 1.937191 -4.022274 28.096116 -3.215361 5.978849 9.821510 0.000000 0.000000 0.000000 -5.557632 1.729555 -31.013879 9.586647 1.125322 -62.725424 -9.902040 -12.267800 10.786900 -35.642300 -54.408401 -7.285240 0.000000 -49.699799 0.000000 12.021000 19.150499 -52.030701 12.151100 10.696500 7.488170 31.084900 58.611698 -3.048680 0.000000 45.554199 0.000000 -6.879940 -16.457701 -46.361401 -0.991197 3.165117 -53.304314 0.000000 0.000000 26.012501 -7.024549 -0.251562 8.094818 0.000000 0.000000 -38.828899 -5.587657 -2.457275 -45.311938 0.000000 0.000000 22.035700 16.665882 6.711288 9.999769 0.000000 0.000000 -28.275100 
-20.289901 9.088725 39.741945 -175.155665 10.846843 -146.715640 2.067385 -4.187506 27.402867 -3.202292 5.943735 10.191971 0.000000 0.000000 0.000000 -5.563544 1.937768 -31.343570 9.497495 1.126059 -62.115204 -10.157600 -11.746600 10.788100 -36.603600 -53.430901 -5.628570 0.000000 -50.736198 0.000000 12.087200 19.254101 -52.215698 12.508000 10.267000 7.786260 31.610201 58.236599 -1.095480 0.000000 46.027500 0.000000 -6.990210 -16.709700 -46.440601 -0.575767 2.994236 -51.779218 0.000000 0.000000 25.821501 -7.178338 -0.021508 8.013270 0.000000 0.000000 -38.789200 -5.410551 -2.410411 -43.666969 0.000000 0.000000 21.540600 16.566304 6.764444 10.171985 0.000000 0.000000 -28.342900 
-20.277227 9.096100 39.733427 -175.108036 10.960193 -147.826242 2.009272 -4.214163 26.622722 -3.119116 5.891363 10.629590 0.000000 0.000000 0.000000 -5.439762 2.174386 -31.972315 9.345544 1.055565 -61.229201 -9.922440 -11.272200 9.519100 -39.162701 -51.687599 -2.597730 0.000000 -51.968201 0.000000 12.463500 19.262400 -52.141899 12.489600 9.773640 7.519600 33.134899 57.678299 1.626950 0.000000 46.687199 0.000000 -7.369230 -16.863300 -46.024799 -0.333994 3.021379 -50.515773 0.000000 0.000000 25.743900 -7.329246 0.047182 8.003053 0.000000 0.000000 -38.705000 -5.375508 -2.195354 -42.410202 0.000000 0.000000 21.306400 16.386228 6.724916 10.328876 0.000000 0.000000 -28.404300 
-20.269195 9.110543 39.727087 -175.400570 11.158514 -148.810412 1.825005 -4.333227 25.904617 -3.385550 5.650895 10.635985 0.000000 0.000000 0.000000 -4.881998 2.535783 -31.985755 8.772242 1.225809 -60.562827 -10.255800 -10.528500 9.935930 -39.080700 -51.168900 -1.745820 0.000000 -52.817501 0.000000 12.642800 19.351200 -51.633598 12.984600 9.611090 7.944700 33.208401 57.087601 3.068070 0.000000 47.535999 0.000000 -7.719490 -16.990601 -46.033699 0.635979 1.570863 -48.826913 0.000000 0.000000 24.548100 -7.957329 1.423786 8.250575 0.000000 0.000000 -38.501900 -5.662118 -2.139830 -41.424546 0.000000 0.000000 21.187700 16.198561 6.714140 10.497592 0.000000 0.000000 -28.524500 
-20.238490 9.103820 39.716041 -174.497437 11.264225 -149.761946 2.046514 -4.186760 24.936974 -3.057608 5.944756 11.126594 0.000000 0.000000 0.000000 -4.559546 2.901888 -32.099700 8.399495 1.317415 -59.551656 -10.735300 -9.751200 11.219000 -37.846001 -51.286400 -1.941530 0.000000 -53.562599 0.000000 12.678700 19.397301 -52.296299 13.324700 9.469840 8.452760 33.148998 56.537998 4.239560 0.000000 48.492298 0.000000 -7.652400 -17.358999 -46.265400 -1.850700 6.568695 -48.952913 0.000000 0.000000 26.737101 -6.470131 -2.724832 7.818415 0.000000 0.000000 -39.017300 -4.886436 -1.246599 -40.064203 0.000000 0.000000 20.780701 15.727722 6.261243 10.599602 0.000000 0.000000 -28.586600 
-20.230317 9.118545 39.707720 -174.751813 11.254447 -150.544667 2.004344 -4.393642 24.022725 -3.201642 5.730579 11.214768 0.000000 0.000000 0.000000 -4.289132 3.243322 -32.093942 8.153563 1.450886 -58.907846 -10.973400 -9.309580 11.466500 -37.847000 -50.506699 -1.101470 0.000000 -54.325802 0.000000 12.737600 19.522400 -52.987801 13.806900 9.382110 9.430970 32.187401 56.078201 4.435410 0.000000 49.535702 0.000000 -7.231850 -17.571301 -47.233398 -1.017047 5.289486 -47.313271 0.000000 0.000000 25.311501 -7.059501 -1.644883 8.110004 0.000000 0.000000 -38.798500 -5.043805 -1.314534 -39.023221 0.000000 0.000000 20.322399 15.568248 6.193427 10.723514 0.000000 0.000000 -28.543300 
-20.227493 9.137676 39.700600 -175.164534 11.191616 -151.478450 2.027360 -4.660464 23.358992 -3.578671 5.495626 11.231694 0.000000 0.000000 0.000000 -3.883679 3.604685 -32.286036 7.889173 1.556851 -58.170256 -11.088100 -8.922010 11.493000 -38.057400 -49.617199 0.018552 0.000000 -55.124500 0.000000 12.504800 19.651899 -53.568802 14.321100 9.163520 9.634320 32.224400 55.246399 5.701090 0.000000 50.623299 0.000000 -7.375460 -17.782900 -46.559101 0.623480 2.456273 -45.190470 0.000000 0.000000 23.206800 -8.009956 0.838159 8.499636 0.000000 0.000000 -38.297100 -5.344549 -1.511010 -37.808556 0.000000 0.000000 19.755800 15.533756 6.155684 10.954013 0.000000 0.000000 -28.547300 
-20.199299 9.151920 39.661647 -174.323789 10.036880 -155.140863 3.050724 -5.489856 24.706756 -3.660943 5.452730 12.620343 0.000000 0.000000 0.000000 -3.465246 3.968328 -32.244615 7.718477 1.849928 -58.556105 -11.539800 -8.790130 10.419900 -38.410801 -47.887901 1.762190 0.000000 -55.982300 0.000000 12.456800 19.620100 -54.219601 15.418200 9.186820 9.267550 31.937099 53.897099 7.060560 0.000000 51.870800 0.000000 -7.231600 -17.826200 -46.454201 1.183394 3.317663 -41.504516 0.000000 0.000000 23.537500 -7.729094 -0.579517 8.316738 0.000000 0.000000 -38.411501 -3.926969 -1.960939 -32.689830 0.000000 0.000000 18.089100 14.753643 5.848461 11.585724 0.000000 0.000000 -28.827400 
-20.183641 9.162460 39.660328 -174.442102 10.366076 -155.400529 2.707817 -5.224353 23.439755 -3.368036 5.473389 12.744980 0.000000 0.000000 0.000000 -3.353409 4.150392 -32.636271 7.585276 1.799406 -57.542995 -11.579100 -8.146850 11.026700 -38.474701 -47.832699 2.475980 0.000000 -56.607700 0.000000 12.125500 20.105499 -54.276199 15.370500 8.492630 9.669090 32.405399 53.651901 8.098590 0.000000 52.754002 0.000000 -7.126020 -17.668501 -46.599800 1.146015 3.438195 -40.845100 0.000000 0.000000 22.907900 -7.845153 -0.404883 8.542045 0.000000 0.000000 -38.321100 -4.167469 -1.477883 -32.440214 0.000000 0.000000 17.966400 14.636760 5.628180 11.708346 0.000000 0.000000 -28.832600 
-20.165850 9.171003 39.648792 -174.401957 10.434771 -155.998581 2.647852 -5.148786 22.388000 -3.169807 5.508162 12.935156 0.000000 0.000000 0.000000 -3.236853 4.310936 -32.691959 7.546323 1.805003 -57.033508 -11.684000 -7.705120 10.913000 -39.041199 -46.998402 3.977930 0.000000 -57.246201 0.000000 12.198000 20.198700 -54.961102 15.495800 8.004540 9.774030 33.090900 52.847301 9.375330 0.000000 53.810799 0.000000 -6.689660 -17.674999 -47.617298 1.347171 3.430426 -39.888853 0.000000 0.000000 22.469101 -7.910974 -0.278201 8.523471 0.000000 0.000000 -38.228201 -4.052031 -1.374616 -31.560728 0.000000 0.000000 17.560600 14.446225 5.590284 11.858704 0.000000 0.000000 -28.870900 
-20.148763 9.177856 39.631069 -174.393942 10.476789 -156.811660 2.638671 -5.149829 21.427940 -3.120736 5.506334 13.169555 0.000000 0.000000 0.000000 -2.734037 4.477465 -32.461046 7.132853 1.916217 -56.882084 -11.880900 -7.367630 10.798600 -39.324100 -45.999500 5.300840 0.000000 -57.839802 0.000000 12.050300 20.359301 -55.576599 15.919600 7.809340 9.978910 33.108299 51.698399 10.273000 0.000000 54.982399 0.000000 -6.259470 -17.364901 -49.119900 1.428846 3.552940 -38.690644 0.000000 0.000000 22.018900 -7.995820 -0.330036 8.468731 0.000000 0.000000 -38.212299 -3.864076 -1.549574 -30.381584 0.000000 0.000000 17.091200 14.218862 5.790639 11.943124 0.000000 0.000000 -28.838800 
-20.133746 9.183848 39.615075 -174.442323 10.680316 -157.571796 2.487300 -5.061645 20.556166 -2.979452 5.504860 13.277748 0.000000 0.000000 0.000000 -2.455916 4.635087 -32.451516 6.589534 2.076846 -56.635011 -12.185300 -6.886010 10.746700 -39.488098 -45.107101 6.591210 0.000000 -58.457001 0.000000 11.748300 20.409700 -56.410400 16.196100 7.495880 10.005100 33.328098 50.714001 11.460600 0.000000 56.077599 0.000000 -5.750890 -17.431400 -49.778801 1.382010 3.818972 -37.556661 0.000000 0.000000 21.598700 -8.071920 -0.403155 8.444270 0.000000 0.000000 -38.104099 -3.873645 -1.424935 -29.374673 0.000000 0.000000 16.740499 13.976424 5.814168 11.957424 0.000000 0.000000 -28.887600 
-20.120283 9.188880 39.600206 -174.502903 10.874218 -158.406920 2.337340 -5.009487 19.784105 -2.811387 5.476173 13.388434 0.000000 0.000000 0.000000 -2.415338 4.736882 -32.614423 6.341340 2.132970 -56.147539 -12.453200 -6.404920 10.653100 -39.710999 -44.176399 7.752830 0.000000 -59.075401 0.000000 11.308200 20.454800 -57.050701 16.436701 7.068470 10.094300 33.547298 50.016399 12.587900 0.000000 56.993900 0.000000 -5.726790 -17.503901 -49.640499 1.419643 3.917124 -36.465355 0.000000 0.000000 21.370800 -8.178958 -0.384053 8.434481 0.000000 0.000000 -38.080999 -3.919477 -1.233635 -28.328459 0.000000 0.000000 16.435200 13.807740 5.758979 11.955888 0.000000 0.000000 -28.925700 
-20.105303 9.193520 39.583610 -174.514215 10.931776 -159.349992 2.267063 -5.067776 19.139312 -2.672724 5.389262 13.447050 0.000000 0.000000 0.000000 -2.242765 4.903066 -32.547136 5.955948 2.254693 -55.745583 -12.690700 -5.977560 10.550700 -39.985699 -43.080700 8.695840 0.000000 -59.721100 0.000000 10.836900 20.298201 -57.712898 16.642099 6.678070 10.039800 34.041698 49.230400 14.002500 0.000000 57.784599 0.000000 -5.498120 -17.569500 -51.048000 1.757495 3.494154 -35.351122 0.000000 0.000000 21.343700 -8.338300 0.024679 8.298061 0.000000 0.000000 -38.007799 -3.901462 -1.040557 -27.167750 0.000000 0.000000 16.204800 13.697870 5.633383 11.936210 0.000000 0.000000 -28.948500 
-20.091326 9.197962 39.572295 -174.526761 11.131819 -159.969357 2.164649 -5.042147 18.309552 -2.601981 5.356883 13.360727 0.000000 0.000000 0.000000 -2.033098 5.126820 -32.451650 5.632634 2.378908 -55.233674 -12.812200 -5.527900 10.526100 -40.321602 -42.051498 9.513650 0.000000 -60.435902 0.000000 10.787600 20.298401 -57.702202 16.707199 6.302460 9.858030 34.704399 48.376499 15.578300 0.000000 58.660900 0.000000 -5.092380 -17.874500 -51.806301 1.975654 3.277034 -34.580459 0.000000 0.000000 21.330601 -8.468896 0.380947 8.186562 0.000000 0.000000 -37.980900 -3.940151 -0.694136 -26.536899 0.000000 0.000000 16.243000 13.563177 5.468064 11.912849 0.000000 0.000000 -29.056900 
